Coordinates
version=1
nRows=12
nColumns=23
inDegrees=yes

Units are S.I. units (second, meters, Newtons, ...)
If the header above contains a line with 'inDegrees', this indicates whether rotational values are in degrees (yes) or radians (no).

endheader
time	pelvis_tilt	pelvis_list	pelvis_rotation	pelvis_tx	pelvis_ty	pelvis_tz	hip_flexion_r	hip_adduction_r	hip_rotation_r	knee_angle_r	knee_angle_r_beta	ankle_angle_r	subtalar_angle_r	mtp_angle_r	hip_flexion_l	hip_adduction_l	hip_rotation_l	knee_angle_l	knee_angle_l_beta	ankle_angle_l	subtalar_angle_l	mtp_angle_l
     15.00000000	     -2.63304538	      0.21616282	      0.06339991	      2.27472020	      0.97919976	      1.03176777	    -10.55006642	      2.49324065	     -0.20052872	     23.47425197	      0.40970299	     11.85013521	      2.84464650	      0.00000000	     38.26686236	     -2.35095857	     -1.28741827	     90.79496990	      1.58467117	     -6.04388538	    -10.64650218	      0.00000000
     15.00666667	     -2.94645383	      1.00907658	      0.02721920	      2.27687543	      0.98393958	      1.03116851	    -12.53167367	      1.58914496	     -0.07157797	     21.19667187	      0.36995171	      8.25362639	      2.86331751	      0.00000000	     38.69444396	     -1.27738452	     -2.05561389	     87.09171910	      1.52003725	     -5.44651109	    -11.46370288	      0.00000000
     15.01333333	     -3.40542409	      1.74714403	     -0.00246038	      2.27887292	      0.98840499	      1.03048961	    -14.17924752	      0.76399695	      0.20914455	     19.12589824	      0.33380990	      4.39544313	      2.39896138	      0.00000000	     39.18667488	     -0.23052882	     -2.72068373	     83.21009782	      1.45229018	     -4.87237953	    -12.10119653	      0.00000000
     15.02000000	     -3.90721823	      2.52093899	     -0.03756586	      2.28063880	      0.99258939	      1.02968252	    -15.37764732	     -0.23366258	     -0.11425468	     17.74536230	      0.30971500	      0.70303707	      2.88316725	      0.00000000	     39.62701731	      0.87422490	     -3.34610961	     79.14536525	      1.38134721	     -4.39917259	    -12.69984472	      0.00000000
     15.02666667	     -4.56815008	      3.17316306	     -0.07307121	      2.28220561	      0.99643033	      1.02886397	    -16.16065605	     -1.09308451	     -0.29201250	     16.72733695	      0.29194710	     -2.88927159	      2.87058666	      0.00000000	     40.15687500	      1.86506583	     -3.82975836	     74.92528259	      1.30769287	     -3.91321118	    -13.03603539	      0.00000000
     15.03333333	     -5.57156990	      3.67155936	     -0.12388162	      2.28340017	      0.99955598	      1.02809250	    -16.09718671	     -1.86987122	     -0.69749878	     16.55430214	      0.28892708	     -6.23394867	      3.20829410	      0.00000000	     41.01143225	      2.65753276	     -4.20446555	     70.64156753	      1.23292794	     -3.28359093	    -12.83453321	      0.00000000
     15.04000000	     -6.00969990	      4.20495929	     -0.07897948	      2.28452459	      1.00316437	      1.02718808	    -16.59668965	     -2.59230851	     -0.91079170	     16.43157151	      0.28678502	     -9.71575122	      2.91525789	      0.00000000	     41.08805283	      3.66365218	     -4.30207830	     66.08382464	      1.15338032	     -2.95116623	    -12.96940460	      0.00000000
     15.04666667	     -6.80830163	      4.51239159	     -0.08807456	      2.28530297	      1.00597397	      1.02646757	    -16.24872062	     -3.14804953	     -1.20849234	     17.13988617	      0.29914745	    -12.81474944	      2.67351651	      0.00000000	     41.51553032	      4.31962431	     -4.35017767	     61.53237708	      1.07394258	     -2.39657305	    -12.36925946	      0.00000000
     15.05333333	     -7.49796656	      4.72761078	     -0.06991619	      2.28595878	      1.00853684	      1.02582194	    -15.79045652	     -3.58782227	     -1.47715491	     18.28757219	      0.31917835	    -15.72475646	      2.23106444	      0.00000000	     41.71815049	      4.89847986	     -4.26517022	     56.89665681	      0.99303399	     -1.83447976	    -11.56351992	      0.00000000
     15.06000000	     -8.06837346	      4.85701044	     -0.03963176	      2.28645287	      1.01084924	      1.02527506	    -15.23440909	     -3.91905494	     -1.69676225	     19.88513221	      0.34706103	    -18.33237186	      1.50865863	      0.00000000	     41.70592610	      5.38608512	     -4.07274284	     52.21882430	      0.91139042	     -1.28104651	    -10.51471503	      0.00000000
     15.06666667	     -8.55502014	      4.91430436	      0.00547359	      2.28686102	      1.01278792	      1.02481398	    -14.56910787	     -4.16278853	     -1.90445841	     21.90970961	      0.38239657	    -20.57724698	      0.57517242	      0.00000000	     41.52285975	      5.77352560	     -3.84622699	     47.55384448	      0.82997116	     -0.70212080	     -9.19799959	      0.00000000
     15.07333333	     -8.92808745	      4.90806707	      0.08889604	      2.28725968	      1.01432799	      1.02436685	    -13.88190618	     -4.31733064	     -2.11397159	     24.28595643	      0.42386990	    -22.37950800	     -0.42547662	      0.00000000	     41.15491783	      6.09092252	     -3.59110854	     42.97140665	      0.74999253	     -0.08210754	     -7.63202286	      0.00000000
